# xmcd
#
# Track frame offsets:
#	150
#	17807
#	34127
#	49107
#	59875
#	75197
#	92592
#	107580
#	118415
#	132595
#
# Disc length: 1960 seconds
#
# Revision: 0
# Processed by: cddbd v1.4PL0 Copyright (c) Steve Scherf et al.
# Submitted via: EasyCDDAExtractor 4.6.9.1
#
DISCID=8607a60a
DTITLE=Marcel Boudreau - L'Acadie C'est Mon Pays
DYEAR=1900
DGENRE=
TTITLE0=Un Amour Comme Le Notre
TTITLE1=Tu Est Venu Comme Un Nuage
TTITLE2=Je Suis Aimer
TTITLE3=Ma P'tite Femme
TTITLE4=Prends Le Temps
TTITLE5=L'Acadie C'est Mon Pays
TTITLE6=Camp Militaire
TTITLE7=J'ai Quitter L'acadie
TTITLE8=On Est Pas Des Gens Des Etats
TTITLE9=50 Cent
EXTD=
EXTT0=
EXTT1=
EXTT2=
EXTT3=
EXTT4=
EXTT5=
EXTT6=
EXTT7=
EXTT8=
EXTT9=
PLAYORDER=
